# Blender v2.73 (sub 0) OBJ File: 'tiles.blend'
# www.blender.org
o Cube.004
v -0.298357 0.000000 -0.298357
v 0.298357 0.000000 -0.298357
v 0.298357 0.000000 0.298357
v -0.298357 0.000000 0.298357
v -0.298357 0.477699 -0.298357
v 0.298357 0.477699 -0.298357
v 0.298357 0.477699 0.298357
v -0.298357 0.477699 0.298357
vt 1.000000 0.000000
vt 1.000000 1.000000
vt 0.000000 1.000000
vt -1.000000 0.000000
vt -1.000000 1.000000
vt 0.000000 0.000000
vn 0.000000 0.000000 -1.000000
vn 1.000000 0.000000 0.000000
vn 0.000000 0.000000 1.000000
vn -1.000000 0.000000 0.000000
vn 0.000000 -1.000000 0.000000
vn 0.000000 1.000000 0.000000
s off
f 6/1/1 2/2/1 1/3/1
f 7/1/2 3/2/2 2/3/2
f 8/4/3 4/5/3 3/3/3
f 5/4/4 1/5/4 4/3/4
f 2/3/5 3/2/5 4/1/5
f 7/3/6 6/5/6 5/4/6
f 5/6/1 6/1/1 1/3/1
f 6/6/2 7/1/2 2/3/2
f 7/6/3 8/4/3 3/3/3
f 8/6/4 5/4/4 4/3/4
f 1/6/5 2/3/5 4/1/5
f 8/6/6 7/3/6 5/4/6
