# Blender v2.73 (sub 0) OBJ File: 'tiles.blend'
# www.blender.org
o Cube.011
v 0.499999 0.000000 0.500000
v -0.500000 0.000000 0.499999
v -0.500000 0.000000 -0.500000
v 0.500000 0.000000 -0.500000
v -0.293407 0.000000 0.293407
v 0.303274 0.000000 -0.303274
v -0.251832 0.000000 -0.251833
v -0.042598 0.000000 -0.026066
v -0.293407 -0.038565 0.293407
v 0.305100 0.000000 0.305101
v 0.076793 0.000000 0.076793
v 0.023845 0.000000 0.023845
v 0.003126 0.000000 -0.065543
v 0.303274 -0.038565 -0.303274
v -0.251832 -0.038565 -0.251833
v -0.042598 -0.038565 -0.026066
v 0.305100 -0.038565 0.305101
v 0.076793 -0.038565 0.076793
v 0.386479 0.000000 0.123211
v -0.098943 0.000000 0.026288
v -0.336468 0.000000 -0.138990
v 0.023845 -0.038565 0.023845
v -0.004926 0.000000 0.057476
v 0.003126 -0.038565 -0.065543
v 0.386479 -0.038565 0.123211
v -0.098943 -0.038565 0.026288
v -0.336468 -0.038565 -0.138990
v -0.004926 -0.038565 0.057476
vt 0.186224 0.695394
vt 0.198630 0.716397
vt 0.190739 0.692692
vt 0.163068 0.665021
vt 0.182897 0.689847
vt 0.164005 0.712949
vt 0.192749 0.689203
vt 0.211786 0.665167
vt 0.207666 0.709619
vt 0.147461 0.649414
vt 0.177633 0.658504
vt 0.227539 0.729492
vt 0.147461 0.729492
vt 0.181351 0.683304
vt 0.185590 0.687544
vt 0.227539 0.649414
vn 0.571200 0.000000 -0.820800
vn -0.358700 0.000000 0.933500
vn 0.624100 0.000000 -0.781400
vn -0.633100 0.000000 -0.774100
vn 0.620900 0.000000 0.783900
vn 0.000000 1.000000 -0.000000
vn 0.808500 0.000000 0.588600
vn 0.148200 0.000000 -0.989000
vn -0.264300 0.000000 0.964400
vn -0.590000 0.000000 0.807400
vn -0.760400 0.000000 -0.649500
vn -0.707100 0.000000 0.707100
vn 0.733500 0.000000 -0.679700
s off
f 20/1/1 26/1/1 27/2/1
f 8/3/2 21/2/2 27/2/2
f 10/4/3 17/4/3 28/5/3
f 23/5/4 28/5/4 9/6/4
f 13/7/5 24/7/5 14/8/5
f 7/9/6 21/2/6 8/3/6
f 10/4/6 1/10/6 19/11/6
f 7/9/6 3/12/6 21/2/6
f 2/13/6 1/10/6 10/4/6
f 3/12/6 7/9/6 6/8/6
f 2/13/6 5/6/6 21/2/6
f 21/2/6 5/6/6 20/1/6
f 5/6/6 10/4/6 23/5/6
f 10/4/6 19/11/6 11/14/6
f 19/11/6 6/8/6 12/15/6
f 4/16/6 6/8/6 19/11/6
f 6/8/6 7/9/6 13/7/6
f 5/6/7 9/6/7 26/1/7
f 19/11/8 25/11/8 18/14/8
f 12/15/9 22/15/9 25/11/9
f 7/9/10 15/9/10 24/7/10
f 6/8/11 14/8/11 22/15/11
f 11/14/12 18/14/12 17/4/12
f 8/3/13 16/3/13 15/9/13
f 21/2/1 20/1/1 27/2/1
f 16/3/2 8/3/2 27/2/2
f 23/5/3 10/4/3 28/5/3
f 5/6/4 23/5/4 9/6/4
f 6/8/5 13/7/5 14/8/5
f 5/6/6 2/13/6 10/4/6
f 4/16/6 3/12/6 6/8/6
f 3/12/6 2/13/6 21/2/6
f 1/10/6 4/16/6 19/11/6
f 20/1/7 5/6/7 26/1/7
f 11/14/8 19/11/8 18/14/8
f 19/11/9 12/15/9 25/11/9
f 13/7/10 7/9/10 24/7/10
f 12/15/11 6/8/11 22/15/11
f 10/4/12 11/14/12 17/4/12
f 7/9/13 8/3/13 15/9/13
