# Blender v2.73 (sub 0) OBJ File: 'tiles.blend'
# www.blender.org
o Cube.009
v -0.500000 0.000000 0.500000
v -0.499999 0.000000 -0.500000
v 0.500000 0.000000 -0.500000
v 0.500000 0.000000 0.500000
v -0.723225 0.012521 0.442415
v -0.723224 0.071630 -0.723225
v 0.466868 0.012521 -0.723224
vt -0.003906 1.007812
vt -0.003906 0.605469
vt 0.398438 0.605469
vt 0.003906 0.507812
vt 0.496094 0.507812
vt 0.496094 0.992188
vt 0.398438 1.007812
vn 0.000000 1.000000 0.000000
vn -0.000000 0.998400 0.056000
vn 0.260500 0.964200 0.048900
vn 0.047900 0.964000 0.261500
vn 0.056000 0.998400 0.000000
s off
f 4/1/1 3/2/1 2/3/1
f 2/3/2 3/2/2 7/4/2
f 2/3/3 6/5/3 5/6/3
f 1/7/1 4/1/1 2/3/1
f 6/5/4 2/3/4 7/4/4
f 1/7/5 2/3/5 5/6/5
