# Blender v2.73 (sub 0) OBJ File: 'tiles.blend'
# www.blender.org
o Cube.009
v -0.500000 0.000000 0.500000
v -0.499999 0.012369 -0.500000
v 0.500000 0.000000 -0.500000
v 0.500000 0.000000 0.500000
v -0.723225 0.012521 0.442415
v -0.723224 0.084000 -0.723225
v 0.466868 0.012521 -0.723224
vt 0.398438 0.996094
vt 0.003906 0.996094
vt 0.003906 0.605469
vt 0.398438 0.605469
vt 0.003906 0.507812
vt 0.496094 0.507812
vt 0.496094 0.996094
vn 0.000000 1.000000 0.000000
vn 0.012400 0.998500 0.054200
vn 0.250800 0.966200 0.059300
vn 0.012400 0.999800 0.012400
vn 0.058000 0.966000 0.252000
vn 0.052800 0.998500 0.012400
s off
f 1/1/1 4/2/1 3/3/1
f 2/4/2 3/3/2 7/5/2
f 2/4/3 6/6/3 5/7/3
f 2/4/4 1/1/4 3/3/4
f 6/6/5 2/4/5 7/5/5
f 1/1/6 2/4/6 5/7/6
