# Blender v2.73 (sub 0) OBJ File: 'tiles.blend'
# www.blender.org
o Cube.010
v 0.499999 0.000000 0.500000
v -0.500000 0.000000 0.499999
v -0.500000 0.000000 -0.500000
v 0.500000 0.000000 -0.500000
v 0.499999 -0.500000 0.500000
v -0.500000 -0.500000 0.499999
v -0.500000 -0.500000 -0.500000
v 0.500000 -0.500000 -0.500000
vt 0.000000 0.749023
vt 0.000000 0.625977
vt 0.123047 0.625977
vt 0.000000 0.678711
vt 0.125000 0.678711
vt 0.125000 0.749023
vt 0.123047 0.749023
vn 0.000000 1.000000 0.000000
vn -0.000000 0.000000 1.000000
vn 1.000000 0.000000 0.000000
vn -1.000000 0.000000 -0.000000
vn 0.000000 0.000000 -1.000000
s off
f 8/1/1 7/2/1 6/3/1
f 3/1/2 7/4/2 8/5/2
f 2/6/3 6/5/3 7/4/3
f 4/1/4 8/4/4 5/5/4
f 1/6/5 5/5/5 6/4/5
f 5/7/1 8/1/1 6/3/1
f 4/6/2 3/1/2 8/5/2
f 3/1/3 2/6/3 7/4/3
f 1/6/4 4/1/4 5/5/4
f 2/1/5 1/6/5 6/4/5
