# Blender v2.73 (sub 0) OBJ File: 'tiles.blend'
# www.blender.org
o Plane.003_Plane.031
v -0.669296 1.035549 -0.466830
v -0.649396 0.994787 0.397718
v -0.663145 0.818402 -0.466830
v -0.655412 0.804940 0.397718
v -0.503616 0.560950 0.424089
v -0.503061 0.963265 -0.466358
v -0.503061 0.923855 0.399604
v -0.503061 0.713520 -0.465468
v -0.503061 0.752084 0.403738
v -0.493303 1.115308 -0.401674
v -0.508095 1.156644 0.432013
v -0.492750 1.130258 -0.215801
v -0.486299 1.153665 0.231452
v -0.503061 0.879165 -0.430022
v -0.503061 0.932002 0.460375
v -0.503061 0.560593 0.424118
v -0.954278 1.195783 -0.394161
v -1.033641 1.239862 -0.314141
v -1.002059 1.222491 -0.364755
v -1.003188 1.209322 0.240627
v -0.899677 1.157571 0.333751
v -0.952921 1.186620 0.298962
v -1.138258 1.058659 -0.314141
v -1.056799 1.016929 -0.390912
v -1.106072 1.041965 -0.363819
v -1.003719 0.976006 0.330352
v -1.107805 1.028119 0.240627
v -1.057372 1.005312 0.297983
v -0.659594 1.225086 0.321160
v -0.560888 1.183629 0.415734
v -0.611910 1.209570 0.385967
v -0.568252 1.149542 -0.384009
v -0.648585 1.196093 -0.307986
v -0.615733 1.175734 -0.355514
v -0.666724 1.010810 0.415403
v -0.764312 1.052789 0.320875
v -0.716907 1.037810 0.385790
v -0.753202 1.014890 -0.307986
v -0.672869 0.968339 -0.384009
v -0.720350 0.994530 -0.355514
v -1.097246 1.273944 -0.113102
v -1.094139 1.270880 0.005627
v -0.921970 1.176304 -0.257979
v -0.890548 1.144492 0.185116
v -1.198756 1.089677 0.005627
v -1.201863 1.092741 -0.113102
v -0.737962 1.260053 -0.072113
v -0.739174 1.267523 0.101647
v -0.843683 1.088132 0.101953
v -0.842579 1.078850 -0.072113
v -0.503616 0.560950 0.424089
v -0.503061 0.560593 0.424118
v -0.275393 0.072696 0.493779
v -0.503061 0.314756 0.436324
v 0.296225 -0.000869 0.407889
v -0.397783 0.706982 0.518570
v 0.258852 0.442360 0.475934
v 0.230358 0.457206 0.344558
v -0.375004 0.691077 0.378826
v 0.231866 0.252639 0.515935
v -0.097372 0.368244 0.462097
v -0.201989 0.213791 0.462097
v -0.313588 1.063695 0.423247
v 0.038228 0.985370 0.518570
v 0.070051 0.956611 -0.494360
v -0.329815 0.913216 0.488616
v -0.036185 0.818849 0.518570
v -0.171034 0.865609 0.397718
v 0.496384 0.560950 0.424089
v -0.275652 0.616124 0.397718
v 0.391767 0.379747 0.424089
v -0.053425 -0.000869 0.492947
v -0.503061 -0.000869 0.493322
v -0.291318 -0.000869 0.488320
v -0.219828 0.059747 0.433589
v 0.281823 -0.000869 0.487094
v 0.496939 -0.000869 0.493322
v -0.503061 0.109294 0.492803
v -0.503061 0.748210 0.490747
v -0.494991 0.744380 0.389887
v -0.503061 0.505220 0.486465
v -0.503616 0.560950 0.425742
v -0.182811 0.188295 0.424931
v 0.496939 0.314756 0.436451
v 0.496939 0.309278 0.340294
v 0.496939 0.109294 0.492804
v 0.496939 0.748210 0.490747
v 0.496939 0.719695 -0.517327
v 0.496939 0.502222 0.483954
v 0.496939 0.560593 0.424118
v 0.496939 0.555241 0.357538
v 0.496939 0.312132 0.436580
v -0.326531 1.061164 -0.311702
v -0.328308 1.084703 0.333347
v -0.312178 1.051009 -0.433779
v -0.029738 0.127849 0.419486
v -0.040123 0.000959 0.424069
v -0.503061 0.963265 -0.466358
v -0.669296 1.035549 -0.466830
v -0.649396 0.994787 0.397718
v -0.503061 0.923855 0.399604
v -0.952921 1.186620 0.298962
v -1.003188 1.209322 0.240627
v -0.899677 1.157571 0.333751
v -1.002059 1.222491 -0.364755
v -0.954278 1.195783 -0.394161
v -1.033641 1.239862 -0.314141
v -0.560888 1.183629 0.415734
v -0.611910 1.209570 0.385967
v -0.659594 1.225086 0.321160
v -0.648585 1.196093 -0.307986
v -0.615733 1.175734 -0.355514
v -0.568252 1.149542 -0.384009
v -0.508095 1.156644 0.432013
v -0.493303 1.115308 -0.401674
v -1.097246 1.273944 -0.113102
v -1.094139 1.270880 0.005627
v -0.737962 1.260053 -0.072113
v -0.739174 1.267523 0.101647
v -0.503061 0.109294 0.492803
v -0.503061 0.109294 0.492803
v -0.275393 0.072696 0.493779
v -0.503061 0.748210 0.490747
v -0.397783 0.706982 0.518570
v 0.258852 0.442360 0.475934
v -0.313588 1.063695 0.423247
v 0.038228 0.985370 0.518570
v -0.053425 -0.000869 0.492947
v 0.496939 0.314756 0.436451
v 0.496939 0.748210 0.490747
v 0.496384 0.560950 0.424089
v 0.496939 0.560593 0.424118
v -0.040123 0.000959 0.424069
v 0.296225 -0.000869 0.407889
v -0.219828 0.059747 0.433589
vt 0.242188 0.807617
vt 0.238281 0.842773
vt 0.217773 0.840820
vt 0.106445 0.874023
vt 0.067383 0.874023
vt 0.058594 0.853516
vt 0.231445 0.853516
vt 0.224609 0.860352
vt 0.150391 0.848633
vt 0.144531 0.837891
vt 0.162109 0.839844
vt 0.125000 0.874023
vt 0.104492 0.853516
vt 0.110352 0.850586
vt 0.093750 0.850586
vt 0.093750 0.828125
vt 0.045898 0.874023
vt 0.000977 0.874023
vt 0.000977 0.853516
vt 0.301758 0.843750
vt 0.336914 0.842773
vt 0.332031 0.872070
vt 0.277344 0.846680
vt 0.271484 0.835938
vt 0.124023 0.850586
vt 0.107422 0.850586
vt 0.098633 0.830078
vt 0.081055 0.874023
vt 0.083008 0.853516
vt 0.098633 0.853516
vt 0.449219 -0.025391
vt 0.056641 0.850586
vt 0.056641 0.830078
vt 0.086914 0.830078
vt 0.135742 0.807617
vt 0.131836 0.785156
vt 0.243164 0.784180
vt 0.042969 0.853516
vt 0.050781 0.853516
vt 0.053711 0.874023
vt 0.069336 0.828125
vt 0.081055 0.828125
vt 0.081055 0.850586
vt 0.100586 0.850586
vt 0.092773 0.830078
vt 0.089844 0.850586
vt 0.069336 0.874023
vt 0.052734 0.874023
vt 0.052734 0.853516
vt 0.051758 0.850586
vt 0.051758 0.828125
vt 0.109375 0.828125
vt 0.125000 0.829102
vt 0.125000 0.850586
vt 0.204102 0.872070
vt 0.359375 0.858398
vt 0.349609 0.866211
vt 0.098633 0.874023
vt 0.117188 0.855469
vt 0.184570 0.870117
vt 0.160156 0.859375
vt 0.282227 0.853516
vt 0.308594 0.871094
vt 0.290039 0.860352
vt 0.366211 0.845703
vt 0.251953 0.754883
vt 0.264648 0.755859
vt 0.268555 0.788086
vt 0.063477 0.791016
vt 0.094727 0.798828
vt 0.094727 0.788086
vt 0.145508 0.841797
vt 0.138672 0.821289
vt 0.159180 0.818359
vt 0.129883 0.769531
vt 0.252930 0.752930
vt 0.375000 0.752930
vt 0.373047 0.793945
vt 0.125000 0.852539
vt 0.069336 0.852539
vt 0.063477 0.828125
vt 0.038086 0.852539
vt 0.035156 0.827148
vt 0.055664 0.798828
vt 0.055664 0.778320
vt 0.114258 0.778320
vt 0.125000 0.798828
vt 0.116211 0.798828
vt 0.125000 0.786133
vt 0.125000 0.799805
vt 0.106445 0.778320
vt 0.262695 0.812500
vt 0.271484 0.806641
vt 0.272461 0.837891
vt 0.258789 0.795898
vt 0.350586 0.823242
vt 0.265625 0.824219
vt 0.284180 0.823242
vt 0.152344 0.767578
vt 0.126953 0.753906
vt 0.014648 0.852539
vt 0.000977 0.852539
vt 0.000977 0.828125
vt 0.097656 0.852539
vt 0.125000 0.784180
vt 0.041992 0.799805
vt 0.041992 0.778320
vt 0.371094 0.824219
vt 0.257812 0.790039
vt 0.370117 0.833008
vt 0.040039 0.874023
vt -0.000000 0.874023
vt -0.000000 0.853516
vt 0.000977 0.850586
vt 0.000977 0.829102
vt 0.089844 0.828125
vt 0.078125 0.852539
vt 0.047852 0.852539
vt 0.048828 0.836914
vt 0.031250 0.852539
vt 0.035156 0.832031
vt 0.000977 0.798828
vt 0.000977 0.778320
vt 0.125000 0.853516
vt 0.124023 0.830078
vt 0.069336 0.850586
vt 0.069336 0.853516
vt 0.124023 0.874023
vt 0.161133 0.839844
vt 0.125000 0.828125
vt 0.063477 0.827148
vt 0.125000 0.778320
vt 0.150391 0.751953
vt 0.027344 0.853516
vn 0.448300 0.893400 0.028200
vn 0.491600 0.870800 0.007900
vn 0.497800 0.867100 0.016200
vn -0.126600 0.020200 0.991700
vn -0.319400 0.165600 0.933000
vn -0.308500 0.151000 0.939200
vn 0.488100 0.871100 -0.054900
vn 0.531500 0.846000 -0.041800
vn 0.512300 0.858800 0.002400
vn -0.008400 0.016400 0.999800
vn -0.085500 0.010300 0.996300
vn -0.855600 0.494000 -0.155000
vn -0.767400 0.441500 -0.465000
vn -0.765900 0.442200 -0.466700
vn -0.716200 0.411700 0.563600
vn -0.842600 0.486500 0.231200
vn -0.841500 0.485900 0.236200
vn 0.408100 0.912900 -0.009900
vn 0.392100 0.917400 -0.067200
vn 0.434600 0.898900 -0.055300
vn 0.442200 0.896300 0.033300
vn 0.423000 0.904800 0.048500
vn -0.108000 0.129900 0.985600
vn -0.309000 0.187400 0.932400
vn -0.310300 0.185000 0.932500
vn -0.735600 0.424700 -0.527800
vn -0.733400 0.423400 -0.531900
vn -0.841500 0.485800 -0.236400
vn -0.189100 0.113900 -0.975300
vn -0.197900 0.124900 -0.972200
vn -0.302800 0.178800 -0.936100
vn -0.848100 0.498700 0.179100
vn -0.852400 0.495600 0.166800
vn -0.751000 0.451000 0.482200
vn 0.472900 0.880800 0.025000
vn 0.435400 0.899300 0.040900
vn 0.402800 0.914600 0.034900
vn 0.004300 -0.001500 -1.000000
vn 0.006200 -0.003600 -1.000000
vn -0.060800 -0.003200 -0.998100
vn -0.715500 0.413100 0.563500
vn -0.527000 0.301100 0.794800
vn -0.535500 0.298900 0.789900
vn -0.298200 0.143300 -0.943700
vn -0.563000 0.322100 -0.761100
vn -0.573300 0.321000 -0.753800
vn -0.541800 0.330200 0.772900
vn -0.562600 0.342000 0.752700
vn -0.740100 0.450100 0.499600
vn -0.548800 0.316800 -0.773600
vn -0.291500 0.168300 -0.941600
vn -0.125000 0.013500 -0.992100
vn -0.855900 0.494100 -0.152600
vn 0.492400 0.870300 0.009200
vn 0.433900 0.896400 -0.090200
vn 0.429600 0.899100 -0.084200
vn -0.843200 0.488100 -0.225100
vn 0.506100 0.862200 0.022100
vn 0.494200 0.869300 -0.012400
vn 0.399800 0.916600 -0.006700
vn 0.417700 0.908400 -0.016900
vn 0.379900 0.925000 -0.002500
vn 0.419600 0.903800 -0.084700
vn 0.004900 1.000000 0.004100
vn 0.005500 1.000000 0.001000
vn 0.136400 0.989400 0.050500
vn -0.019400 -0.069800 0.997400
vn -0.017500 -0.070200 0.997400
vn -0.011300 -0.058800 0.998200
vn 0.471200 0.881200 -0.037500
vn 0.416200 0.909200 0.012500
vn 0.428500 0.903500 -0.000600
vn 0.383700 0.922700 -0.037800
vn 0.465900 0.884700 -0.014700
vn 0.484100 0.874700 -0.024700
vn 0.373600 0.927300 -0.023400
vn 0.048600 -0.026600 0.998500
vn -0.027400 0.064600 0.997500
vn -0.019800 0.008100 0.999800
vn -0.058300 0.322000 0.945000
vn -0.122500 0.354700 0.926900
vn 0.541900 0.837700 -0.067400
vn -0.010100 0.009600 0.999900
vn -0.007400 0.003100 1.000000
vn -0.057900 0.032900 0.997800
vn -0.049600 0.028700 0.998400
vn -0.034500 0.019900 0.999200
vn -0.028900 0.004700 0.999600
vn -0.033900 0.014400 0.999300
vn -0.038100 0.022800 0.999000
vn 0.199800 0.979500 -0.026300
vn 0.283100 0.957500 0.055300
vn 0.158600 0.985200 -0.065500
vn 0.361700 0.932300 -0.003200
vn 0.299400 0.953100 -0.043700
vn 0.273100 0.945700 0.176300
vn 0.336700 0.940400 0.046500
vn 0.379600 0.924500 -0.034100
vn 0.386700 0.921900 -0.024200
vn -0.122300 -0.093400 0.988100
vn -0.261700 -0.017000 0.965000
vn -0.063700 -0.075100 0.995100
vn 0.117700 0.153600 0.981100
vn 0.014700 -0.012400 0.999800
vn 0.023600 0.004700 0.999700
vn -0.053000 0.035100 0.998000
vn -0.056700 0.038400 0.997700
vn 0.270900 0.961400 -0.048100
vn 0.178800 0.982000 0.060700
vn 0.365200 0.928400 -0.068100
vn -0.002300 0.015500 0.999900
vn -0.074000 0.203700 0.976200
vn 0.231000 0.225200 0.946500
vn 0.151200 0.203200 0.967400
vn 0.048200 0.032100 0.998300
vn 0.055300 0.036000 0.997800
vn 0.055200 0.031500 0.998000
vn 0.122700 0.079500 0.989300
vn 0.137600 0.262500 0.955100
vn 0.155000 0.202500 0.966900
vn 0.134500 0.024300 0.990600
vn -0.068900 0.042700 0.996700
vn -0.069100 0.043700 0.996700
vn -0.308500 0.159800 -0.937700
vn -0.548500 0.316700 -0.773800
vn 0.465300 0.883700 -0.050400
vn 0.048500 -0.027600 0.998400
vn -0.086100 0.049900 0.995000
vn 0.366000 0.930600 -0.006000
vn 0.221500 0.257900 0.940400
s 1
f 1/1/1 17/2/2 43/3/3
f 100/4/4 104/5/5 26/6/6
f 19/7/2 18/8/2 43/3/3
f 22/9/7 21/10/8 44/11/9
f 7/12/10 100/4/4 4/13/11
f 41/14/12 107/15/13 23/16/14
f 103/17/15 42/18/16 45/19/17
f 13/20/18 12/21/19 47/22/20
f 13/20/18 108/23/21 11/24/22
f 114/25/23 30/26/24 35/27/25
f 33/28/26 38/29/27 50/30/28
f 115/31/29 14/31/30 39/31/31
f 119/32/32 49/33/33 36/34/34
f 2/35/35 101/36/36 6/37/37
f 98/31/38 8/31/39 3/31/40
f 103/17/15 27/38/41 28/39/42
f 102/40/43 28/39/42 26/6/6
f 24/41/44 25/42/45 105/43/46
f 25/42/45 23/16/14 107/15/13
f 35/27/25 30/26/24 31/44/47
f 37/45/48 31/44/47 29/46/49
f 38/29/27 33/28/26 34/47/50
f 34/47/50 32/48/51 39/49/31
f 99/50/52 3/51/40 24/41/44
f 44/11/9 2/35/35 1/1/1
f 46/52/53 45/53/17 42/54/16
f 43/3/3 18/8/2 116/55/54
f 12/21/19 112/56/55 111/57/56
f 118/58/57 50/30/28 49/59/33
f 117/60/58 20/61/59 44/11/9
f 109/62/60 108/23/21 13/20/18
f 44/11/9 21/10/8 2/35/35
f 48/63/61 110/64/62 13/20/18
f 113/65/63 112/56/55 12/21/19
f 117/60/58 44/11/9 43/3/3
f 76/66/64 55/67/65 97/68/66
f 72/69/67 122/70/68 74/71/69
f 85/72/70 58/73/71 57/74/72
f 57/74/72 58/73/71 59/75/73
f 87/76/74 88/77/75 65/78/76
f 130/79/77 64/80/78 67/81/79
f 64/80/78 63/82/80 66/83/81
f 91/31/82 131/31/82 90/31/82
f 68/84/83 70/85/84 71/86/85
f 132/87/86 69/88/87 71/86/85
f 77/89/88 86/90/89 76/91/90
f 53/92/91 75/93/92 78/94/93
f 127/95/94 65/78/76 93/96/95
f 126/97/96 127/95/94 94/98/97
f 56/99/98 59/75/73 80/100/99
f 124/101/100 123/102/101 81/103/102
f 125/104/103 124/101/100 81/103/102
f 120/90/104 73/105/105 74/71/69
f 61/106/106 62/107/107 76/91/90
f 65/78/76 95/108/108 93/96/95
f 128/109/109 75/93/92 53/92/91
f 10/110/110 12/21/19 93/96/95
f 93/96/95 12/21/19 13/20/18
f 11/24/22 126/97/96 94/98/97
f 68/111/83 7/112/10 9/113/111
f 63/82/80 114/114/23 15/115/112
f 129/79/113 125/104/103 60/116/114
f 134/117/115 96/118/116 133/119/117
f 83/120/118 54/102/119 121/103/120
f 128/109/109 97/68/66 75/93/92
f 96/118/116 83/120/118 135/121/121
f 61/106/106 82/122/122 54/123/123
f 4/13/11 100/4/4 26/6/6
f 17/2/2 19/7/2 43/3/3
f 20/61/59 22/9/7 44/11/9
f 9/124/111 7/12/10 4/13/11
f 46/52/53 41/14/12 23/16/14
f 27/38/41 103/17/15 45/19/17
f 48/63/61 13/20/18 47/22/20
f 15/125/112 114/25/23 35/27/25
f 118/58/57 33/28/26 50/30/28
f 32/31/51 115/31/29 39/31/31
f 29/46/49 119/32/32 36/34/34
f 1/1/1 2/35/35 6/37/37
f 99/31/52 98/31/38 3/31/40
f 102/40/43 103/17/15 28/39/42
f 104/5/5 102/40/43 26/6/6
f 106/126/124 24/41/44 105/43/46
f 105/43/46 25/42/45 107/15/13
f 37/45/48 35/27/25 31/44/47
f 36/34/34 37/45/48 29/46/49
f 40/127/125 38/29/27 34/47/50
f 40/127/125 34/47/50 39/49/31
f 106/126/124 99/50/52 24/41/44
f 43/3/3 44/11/9 1/1/1
f 41/14/12 46/52/53 42/54/16
f 47/22/20 12/21/19 111/57/56
f 119/128/32 118/58/57 49/59/33
f 110/64/62 109/62/60 13/20/18
f 10/110/110 113/65/63 12/21/19
f 116/55/54 117/60/58 43/3/3
f 128/109/109 76/66/64 97/68/66
f 84/129/126 85/72/70 57/74/72
f 56/99/98 57/74/72 59/75/73
f 127/95/94 87/76/74 65/78/76
f 89/130/127 130/79/77 67/81/79
f 67/131/79 64/80/78 66/83/81
f 69/88/87 68/84/83 71/86/85
f 92/132/128 132/87/86 71/86/85
f 94/98/97 127/95/94 93/96/95
f 79/133/129 56/99/98 80/100/99
f 60/116/114 125/104/103 81/103/102
f 122/70/68 120/90/104 74/71/69
f 86/90/89 61/106/106 76/91/90
f 95/108/108 10/110/110 93/96/95
f 94/98/97 93/96/95 13/20/18
f 13/20/18 11/24/22 94/98/97
f 70/134/84 68/111/83 9/113/111
f 66/83/81 63/82/80 15/115/112
f 86/130/130 129/79/113 60/116/114
f 135/121/121 83/120/118 121/103/120
f 133/119/117 96/118/116 135/121/121
f 62/107/107 61/106/106 54/123/123
l 5 16
l 51 52
