# Blender v2.73 (sub 0) OBJ File: 'tiles.blend'
# www.blender.org
o Plane.007_Plane.053
v -0.537186 0.549472 -0.387178
v -0.076418 0.758848 0.397718
v -0.663645 0.566851 -0.139094
v -0.114873 0.584496 0.397718
v -0.425658 0.560950 0.424089
v -0.353159 0.724160 -0.388557
v -0.211371 1.033348 -0.475957
v -0.227261 1.077754 0.461946
v -0.210777 1.049409 -0.233994
v -0.203847 1.074555 0.246485
v -0.221854 0.779663 -0.506411
v -0.221853 0.836425 0.492415
v -0.614656 0.750184 0.200574
v -0.322934 0.926476 -0.369733
v -0.464146 0.734280 0.169952
v -0.335161 0.895936 0.240627
v -0.231651 0.844185 0.333751
v -0.464146 0.724160 -0.124750
v -0.427551 0.745272 -0.369733
v -0.640308 0.548422 0.165887
v -0.522204 0.505542 0.368801
v -0.335693 0.662620 0.330352
v -0.439778 0.714733 0.240627
v -0.637994 0.761895 -0.143155
v -0.390016 1.151281 0.342858
v -0.283977 1.106745 0.444457
v -0.338789 1.134613 0.412479
v -0.291887 1.070125 -0.456980
v -0.399522 1.120134 -0.333026
v -0.342896 1.098263 -0.403712
v -0.397675 0.921087 0.444102
v -0.502512 0.966185 0.342551
v -0.451586 0.950092 0.412289
v -0.511911 0.925470 -0.333026
v -0.404276 0.875461 -0.456980
v -0.455284 0.903598 -0.403712
v -0.429220 0.960558 -0.173799
v -0.426113 0.957494 0.005627
v -0.546569 0.744516 -0.383817
v -0.422234 0.724160 -0.316082
v -0.512940 0.758949 0.005627
v -0.517019 0.759961 -0.171107
v -0.474206 1.188846 -0.079631
v -0.475507 1.196871 0.107038
v -0.587780 1.004153 0.107366
v -0.586594 0.994181 -0.079631
v -0.275393 0.072696 0.493779
v -0.448236 0.267409 0.369303
v 0.296225 -0.000869 0.451300
v -0.288994 0.660676 0.482279
v 0.258852 0.442360 0.475934
v 0.230358 0.457206 0.344558
v -0.266215 0.644771 0.354651
v 0.231866 0.252639 0.515935
v -0.097372 0.368244 0.462097
v -0.201989 0.213791 0.462097
v 0.009962 0.981635 0.485549
v -0.035961 0.778513 0.520662
v -0.390668 0.717313 -0.481981
v 0.496384 0.560950 0.424089
v -0.396279 0.551233 -0.477711
v 0.391767 0.379747 0.424089
v -0.053425 -0.000869 0.492947
v -0.503061 -0.000869 0.497878
v -0.291318 -0.000869 0.488320
v -0.219828 0.059747 0.423426
v 0.281823 -0.000869 0.487094
v 0.496939 -0.000869 0.493322
v -0.503061 0.102757 0.497360
v -0.394568 0.691399 0.273992
v -0.482277 0.707304 0.385142
v -0.331835 0.458914 0.487358
v -0.383986 0.475462 0.345554
v -0.182811 0.188295 0.424931
v 0.496939 0.314756 0.436451
v 0.496939 0.309278 0.340294
v 0.496939 0.109294 0.492804
v 0.496939 0.748210 0.490747
v 0.496939 0.502222 0.483954
v 0.496939 0.560593 0.424118
v 0.496939 0.555241 0.357538
v 0.496939 0.312132 0.436580
v -0.032209 0.975182 -0.337019
v 0.029758 0.989356 0.321601
v 0.022910 0.964272 -0.481752
v -0.029738 0.127849 0.419486
v -0.040123 0.000959 0.424069
v 0.496939 0.745228 0.385344
v -0.587548 0.267409 0.206746
v -0.552650 0.492485 0.196163
v -0.651127 0.267409 0.053171
v -0.616229 0.493276 0.042589
v -0.617151 0.267409 -0.242663
v -0.582252 0.495497 -0.253245
v -0.475698 0.267409 -0.432608
v -0.490546 0.475462 -0.407578
v -0.549501 0.267409 0.221507
v -0.659677 -0.000869 0.358693
v -0.659678 0.109294 0.358174
v -0.623203 0.267409 0.085218
v -0.735262 -0.000869 0.140126
v -0.734870 0.109294 0.139786
v -0.623926 0.267409 -0.163481
v -0.719907 -0.000869 -0.195339
v -0.719420 0.109294 -0.195517
v -0.532432 0.267409 -0.343998
v -0.580730 -0.000869 -0.426952
v -0.580233 0.109294 -0.426805
v -0.603813 0.121974 0.312758
v -0.699863 0.126511 0.102924
v -0.483839 0.106981 0.419429
v -0.566725 -0.000869 0.472503
v -0.564073 0.109294 0.474342
v -0.535346 0.111530 0.389301
v -0.402983 0.273258 -0.438722
v -0.404002 -0.000869 -0.489490
v -0.403505 0.109294 -0.489343
v -0.546569 0.744516 -0.383817
v -0.546569 0.744516 -0.383817
v -0.537186 0.549472 -0.387178
v -0.614656 0.750184 0.200574
v -0.482277 0.707304 0.385142
v -0.283977 1.106745 0.444457
v -0.338789 1.134613 0.412479
v -0.390016 1.151281 0.342858
v -0.399522 1.120134 -0.333026
v -0.342896 1.098263 -0.403712
v -0.291887 1.070125 -0.456980
v -0.637994 0.761895 -0.143155
v -0.227261 1.077754 0.461946
v -0.211371 1.033348 -0.475957
v -0.390668 0.717313 -0.481981
v -0.474206 1.188846 -0.079631
v -0.475507 1.196871 0.107038
v -0.503061 0.102757 0.497360
v -0.275393 0.072696 0.493779
v -0.288994 0.660676 0.482279
v 0.258852 0.442360 0.475934
v 0.009962 0.981635 0.485549
v 0.496939 0.748210 0.490747
v -0.053425 -0.000869 0.492947
v 0.496939 0.314756 0.436451
v 0.496384 0.560950 0.424089
v 0.496939 0.560593 0.424118
v -0.040123 0.000959 0.424069
v 0.296225 -0.000869 0.451300
v -0.219828 0.059747 0.423426
v -0.564073 0.109294 0.474342
v -0.734870 0.109294 0.139786
v -0.659678 0.109294 0.358174
v -0.719420 0.109294 -0.195517
v -0.580233 0.109294 -0.426805
v -0.580730 -0.000869 -0.426952
v -0.532432 0.267409 -0.343998
v -0.535346 0.111530 0.389301
v -0.603813 0.121974 0.312758
v -0.483839 0.106981 0.419429
v -0.699863 0.126511 0.102924
vt 0.072266 0.798828
vt 0.043945 0.798828
vt 0.036133 0.778320
vt 0.110352 0.850586
vt 0.093750 0.850586
vt 0.093750 0.828125
vt 0.023438 0.798828
vt 0.000977 0.798828
vt 0.000977 0.779297
vt 0.301758 0.843750
vt 0.336914 0.842773
vt 0.332031 0.872070
vt 0.277344 0.846680
vt 0.271484 0.835938
vt 0.124023 0.850586
vt 0.107422 0.850586
vt 0.098633 0.830078
vt 0.081055 0.874023
vt 0.083008 0.853516
vt 0.098633 0.853516
vt 0.449219 -0.025391
vt 0.056641 0.850586
vt 0.056641 0.830078
vt 0.086914 0.830078
vt 0.021484 0.778320
vt 0.086914 0.831055
vt 0.091797 0.849609
vt 0.041016 0.851562
vt 0.111328 0.828125
vt 0.114258 0.850586
vt 0.283203 0.855469
vt 0.296875 0.845703
vt 0.311523 0.854492
vt 0.100586 0.850586
vt 0.092773 0.830078
vt 0.089844 0.850586
vt 0.069336 0.874023
vt 0.069336 0.853516
vt 0.052734 0.874023
vt 0.052734 0.853516
vt 0.328125 0.855469
vt 0.327148 0.873047
vt 0.109375 0.828125
vt 0.125000 0.829102
vt 0.125000 0.850586
vt 0.008789 0.833984
vt 0.007812 0.850586
vt 0.000977 0.850586
vt 0.359375 0.858398
vt 0.349609 0.866211
vt 0.098633 0.874023
vt 0.117188 0.855469
vt 0.342773 0.850586
vt 0.353516 0.839844
vt 0.363281 0.854492
vt 0.282227 0.853516
vt 0.041016 0.833008
vt 0.308594 0.871094
vt 0.290039 0.860352
vt 0.366211 0.845703
vt 0.125977 0.752930
vt 0.137695 0.750977
vt 0.143555 0.789062
vt 0.125000 0.790039
vt 0.104492 0.797852
vt 0.105469 0.779297
vt 0.267578 0.750977
vt 0.270508 0.779297
vt 0.255859 0.779297
vt 0.283203 0.824219
vt 0.267578 0.829102
vt 0.070312 0.778320
vt 0.114258 0.778320
vt 0.125000 0.798828
vt 0.116211 0.798828
vt 0.125000 0.786133
vt 0.125000 0.799805
vt 0.106445 0.778320
vt 0.137695 0.817383
vt 0.145508 0.810547
vt 0.145508 0.840820
vt 0.125000 0.852539
vt 0.097656 0.852539
vt 0.000000 0.852539
vt 0.000000 0.828125
vt 0.071289 0.799805
vt 0.071289 0.779297
vt 0.041992 0.799805
vt 0.041992 0.778320
vt 0.132812 0.792969
vt 0.370117 0.833008
vt 0.350586 0.823242
vt 0.284180 0.823242
vt 0.265625 0.824219
vt 0.052734 0.851562
vt 0.000977 0.829102
vt 0.089844 0.828125
vt 0.103516 0.850586
vt 0.103516 0.829102
vt 0.047852 0.851562
vt 0.047852 0.829102
vt 0.078125 0.829102
vt 0.078125 0.850586
vt 0.000977 0.778320
vt 0.049805 0.829102
vt 0.265693 0.752930
vt 0.274274 0.795634
vt 0.258789 0.795898
vt 0.124023 0.778320
vt 0.124023 0.798828
vt 0.104492 0.799805
vt 0.105469 0.778320
vt 0.077148 0.799805
vt 0.044922 0.799805
vt 0.045898 0.778320
vt 0.022461 0.799805
vt 0.033627 0.829102
vt 0.054554 0.779297
vt 0.055414 0.800110
vt 0.020508 0.800781
vt 0.015625 0.850586
vt 0.013672 0.829102
vt 0.071289 0.800781
vt 0.031250 0.850586
vt 0.105469 0.799805
vt 0.031250 0.829102
vt 0.063477 0.850586
vt 0.124023 0.796875
vt 0.124023 0.779297
vt 0.155273 0.833984
vt 0.159126 0.839615
vt 0.149782 0.846621
vt 0.189453 0.872070
vt 0.192383 0.863281
vt 0.207031 0.871094
vt 0.167969 0.852539
vt 0.000977 0.851562
vt 0.159180 0.859375
vt 0.062500 0.829102
vt 0.124023 0.830078
vt 0.304688 0.869141
vt 0.001953 0.834961
vt 0.124023 0.874023
vt 0.348633 0.867188
vt 0.251953 0.752930
vt 0.125000 0.778320
vt 0.125000 0.828125
vt 0.371094 0.824219
vt 0.252930 0.752930
vt 0.076172 0.778320
vt 0.020508 0.779297
vt 0.000977 0.830078
vn -0.181200 0.063900 0.981400
vn -0.429000 0.229500 0.873700
vn -0.429100 0.217600 0.876600
vn -0.883000 0.412400 -0.224200
vn -0.756700 0.436900 -0.486400
vn -0.799200 0.401200 -0.447600
vn -0.705700 0.374800 0.601200
vn -0.893800 0.391100 0.219300
vn -0.886100 0.412900 0.210600
vn 0.381800 0.924100 -0.014200
vn 0.384700 0.920800 -0.064200
vn 0.428700 0.900900 -0.067500
vn 0.442200 0.896300 0.033300
vn 0.394900 0.917800 0.041200
vn -0.159200 0.127800 0.978900
vn -0.309000 0.187400 0.932400
vn -0.310300 0.185000 0.932500
vn -0.743200 0.429100 -0.513300
vn -0.744100 0.429600 -0.511600
vn -0.847200 0.489100 -0.207600
vn -0.189100 0.113900 -0.975300
vn -0.197900 0.124900 -0.972200
vn -0.405800 0.238400 -0.882300
vn -0.848100 0.498700 0.179100
vn -0.852400 0.495600 0.166800
vn -0.751000 0.451000 0.482200
vn -0.701200 0.404800 0.586900
vn -0.954400 0.075300 0.288700
vn -0.938400 0.089300 0.333900
vn -0.981500 0.122600 -0.147400
vn -0.669900 0.071400 0.739000
vn -0.639100 0.064400 0.766400
vn 0.259700 0.962400 0.079900
vn 0.321800 0.939200 0.119600
vn 0.177200 0.981100 0.077600
vn -0.541800 0.330200 0.772900
vn -0.562600 0.342000 0.752700
vn -0.740100 0.450100 0.499600
vn -0.622200 0.359200 -0.695500
vn -0.625000 0.360800 -0.692200
vn -0.390200 0.225300 -0.892700
vn 0.211500 0.977400 0.006100
vn 0.186400 0.982500 0.003800
vn -0.901000 0.391600 -0.186800
vn -0.537200 -0.007500 -0.843400
vn -0.534200 -0.011100 -0.845300
vn -0.537100 -0.007600 -0.843500
vn 0.392100 0.919000 -0.040700
vn 0.381800 0.921600 -0.069500
vn -0.849100 0.491500 -0.193400
vn 0.140200 0.990100 -0.005200
vn -0.054000 0.997200 -0.051400
vn 0.076700 0.996700 -0.026500
vn 0.399800 0.916600 -0.006700
vn -0.983000 0.096400 -0.156400
vn -0.908200 0.023000 -0.417800
vn 0.417700 0.908400 -0.016900
vn 0.379900 0.925000 -0.002500
vn 0.412500 0.908600 -0.065600
vn 0.004700 1.000000 0.004700
vn 0.005300 1.000000 0.002100
vn 0.143000 0.988300 0.052900
vn -0.019400 -0.069800 0.997400
vn -0.006700 -0.072600 0.997300
vn 0.000600 -0.061300 0.998100
vn 0.471200 0.881200 -0.037500
vn 0.419200 0.907900 0.005700
vn 0.432700 0.901500 0.002800
vn 0.313300 0.949100 -0.033500
vn 0.312500 0.948300 -0.056000
vn 0.541900 0.837700 -0.067400
vn -0.150800 0.033300 0.988000
vn -0.062400 0.034600 0.997500
vn -0.049600 0.028700 0.998400
vn -0.038000 0.021900 0.999000
vn -0.028900 0.004700 0.999600
vn -0.033900 0.014400 0.999300
vn -0.038100 0.022800 0.999000
vn 0.182500 0.982500 -0.036700
vn 0.265400 0.963000 0.046100
vn 0.120700 0.990300 0.069200
vn -0.253900 0.052000 0.965800
vn 0.116600 0.168200 0.978800
vn -0.234500 0.093500 0.967600
vn -0.180000 -0.007800 0.983600
vn -0.166200 0.004900 0.986100
vn -0.155800 0.105400 0.982100
vn -0.195500 0.130900 0.971900
vn 0.176900 0.982500 0.058800
vn 0.360300 0.932000 -0.040300
vn 0.329200 0.944000 -0.024100
vn 0.388800 0.920300 0.042000
vn 0.406900 0.909500 0.084400
vn -0.010000 0.155100 0.987800
vn -0.119300 0.141300 0.982800
vn 0.231000 0.225200 0.946500
vn 0.149700 0.203600 0.967500
vn -0.080400 0.042600 0.995900
vn -0.023400 0.025700 0.999400
vn -0.038700 0.039200 0.998500
vn -0.389000 0.395600 0.831900
vn -0.212000 0.334000 0.918400
vn -0.049700 0.068000 0.996400
vn -0.086600 0.013300 0.996200
vn -0.472800 0.243700 0.846800
vn -0.521200 0.212100 0.826600
vn 0.056500 0.008300 0.998400
vn -0.005800 0.148100 0.989000
vn 0.436100 0.899900 -0.003400
vn -0.815200 0.190000 0.547100
vn -0.843900 0.154800 0.513600
vn -0.978600 0.157300 0.132400
vn -0.936100 0.128000 -0.327600
vn -0.936700 0.107000 -0.333300
vn -0.826800 0.059800 -0.559300
vn -0.563700 0.407200 0.718600
vn -0.591600 0.003400 0.806300
vn -0.585600 0.000600 0.810600
vn -0.873200 0.003700 0.487300
vn -0.740100 0.523300 0.422300
vn -0.845800 0.487400 0.217100
vn -0.839400 0.504600 0.202100
vn -0.989800 0.004100 0.142100
vn -0.989700 0.003600 0.142900
vn -0.829400 0.528900 -0.180000
vn -0.930100 0.256500 -0.262900
vn -0.957300 0.003700 -0.288900
vn -0.757200 0.493300 -0.428200
vn -0.835400 0.222300 -0.502700
vn -0.856900 0.004200 -0.515500
vn 0.120000 0.989800 0.076300
vn 0.002700 0.998200 0.060400
vn 0.035200 0.998300 0.045700
vn -0.330700 0.938700 0.097300
vn -0.405600 0.913100 0.041200
vn -0.459100 0.888100 -0.021200
vn -0.132600 0.982700 0.129000
vn -0.713200 0.508300 0.482700
vn -0.104000 0.990000 0.095300
vn -0.386700 0.200100 -0.900200
vn -0.521500 0.514200 -0.680900
vn -0.428000 0.403900 -0.808500
vn -0.330400 0.138800 -0.933600
vn -0.333600 0.002800 -0.942700
vn 0.119700 0.990000 0.074000
vn -0.540500 -0.003400 -0.841300
vn 0.166100 0.986100 -0.008500
vn -0.891400 -0.035100 -0.451900
vn 0.465300 0.883700 -0.050400
vn -0.086100 0.049900 0.995000
vn 0.283400 0.958300 0.035700
vn 0.221500 0.257900 0.940400
vn 0.054500 -0.027600 0.998100
vn 0.432300 0.901400 -0.025500
vn -0.977400 0.157600 0.140600
vn -0.801900 0.014600 -0.597200
vn -0.873100 0.002300 0.487600
s 1
f 2/1/1 17/2/2 22/3/3
f 37/4/4 14/5/5 19/6/6
f 16/7/7 38/8/8 41/9/9
f 10/10/10 9/11/11 43/12/12
f 10/10/10 123/13/13 8/14/14
f 130/15/15 26/16/16 31/17/17
f 29/18/18 34/19/19 46/20/20
f 131/21/21 11/21/22 35/21/23
f 134/22/24 45/23/25 32/24/26
f 16/7/7 23/25/27 22/3/3
f 20/26/28 13/27/29 24/28/30
f 21/29/31 71/30/32 13/27/29
f 122/31/33 70/32/34 15/33/35
f 31/17/17 26/16/16 27/34/36
f 33/35/37 27/34/36 25/36/38
f 29/18/18 30/37/39 36/38/40
f 30/37/39 28/39/41 35/40/23
f 15/33/35 18/41/42 129/42/43
f 42/43/44 41/44/9 38/45/8
f 1/46/45 39/47/46 59/48/47
f 9/11/11 127/49/48 126/50/49
f 133/51/50 46/20/20 45/52/25
f 40/53/51 6/54/52 132/55/53
f 124/56/54 123/13/13 10/10/10
f 3/57/55 24/28/30 118/47/56
f 44/58/57 125/59/58 10/10/10
f 128/60/59 127/49/48 9/11/11
f 129/42/43 18/41/42 40/53/51
f 67/61/60 49/62/61 87/63/62
f 63/64/63 136/65/64 65/66/65
f 76/67/66 52/68/67 51/69/68
f 52/68/67 53/70/69 50/71/70
f 81/21/71 143/21/71 80/21/71
f 2/1/1 4/72/72 62/73/73
f 144/74/74 60/75/75 62/73/73
f 68/76/76 77/77/77 67/78/78
f 47/79/79 66/80/80 69/81/81
f 53/70/69 70/32/34 122/31/33
f 137/82/82 71/30/32 21/29/31
f 138/83/83 137/84/82 72/85/84
f 135/86/85 64/87/86 65/66/65
f 55/88/87 56/89/88 67/78/78
f 141/90/89 66/80/80 47/79/79
f 7/91/90 9/11/11 83/92/91
f 84/93/92 83/92/91 9/11/11
f 8/14/14 139/94/93 84/93/92
f 57/95/94 130/48/15 12/96/95
f 142/82/96 138/83/83 54/97/97
f 146/44/98 86/98/99 145/99/100
f 48/100/101 157/101/102 147/102/103
f 141/90/89 87/63/62 66/80/80
f 86/98/99 74/103/104 147/102/103
f 73/8/105 48/104/106 56/89/88
f 78/82/107 57/95/94 58/105/108
f 88/106/109 84/107/92 139/108/93
f 48/109/106 73/110/105 90/111/110
f 89/112/111 90/111/110 92/113/112
f 92/113/112 94/114/113 93/115/114
f 93/115/114 94/114/113 96/116/115
f 157/101/102 48/100/101 114/117/116
f 112/118/117 113/119/118 99/120/119
f 97/48/120 100/121/121 158/122/122
f 99/120/119 102/123/123 101/87/124
f 158/122/122 100/121/121 103/124/125
f 102/123/123 105/125/126 104/66/127
f 105/126/126 103/124/125 106/127/128
f 105/125/126 108/128/129 107/129/130
f 111/130/131 155/131/132 148/132/133
f 66/80/80 111/130/131 69/81/81
f 149/133/134 110/134/135 151/135/136
f 109/136/137 110/134/135 149/133/134
f 135/86/85 113/119/118 112/118/117
f 69/81/81 111/130/131 148/132/133
f 48/100/101 97/137/120 156/96/138
f 155/131/132 109/136/137 150/138/139
f 152/139/140 154/127/141 115/127/142
f 152/128/140 117/128/143 116/129/144
f 4/72/72 2/1/1 22/3/3
f 42/43/44 37/4/4 19/6/6
f 23/25/27 16/7/7 41/9/9
f 44/58/57 10/10/10 43/12/12
f 12/140/95 130/15/15 31/17/17
f 133/51/50 29/18/18 46/20/20
f 28/21/41 131/21/21 35/21/23
f 25/36/38 134/22/24 32/24/26
f 17/2/2 16/7/7 22/3/3
f 3/57/55 20/26/28 24/28/30
f 20/26/28 21/29/31 13/27/29
f 121/141/145 122/31/33 15/33/35
f 33/35/37 31/17/17 27/34/36
f 32/24/26 33/35/37 25/36/38
f 34/19/19 29/18/18 36/38/40
f 36/38/40 30/37/39 35/40/23
f 121/141/145 15/33/35 129/42/43
f 37/4/4 42/43/44 38/45/8
f 61/142/146 1/46/45 59/48/47
f 43/12/12 9/11/11 126/50/49
f 134/143/24 133/51/50 45/52/25
f 119/144/147 40/53/51 132/55/53
f 125/59/58 124/56/54 10/10/10
f 120/46/148 3/57/55 118/47/56
f 7/91/90 128/60/59 9/11/11
f 119/144/147 129/42/43 40/53/51
f 141/90/89 67/61/60 87/63/62
f 75/145/149 76/67/66 51/69/68
f 51/69/68 52/68/67 50/71/70
f 60/75/75 2/1/1 62/73/73
f 82/146/150 144/74/74 62/73/73
f 50/71/70 53/70/69 122/31/33
f 72/147/84 137/82/82 21/29/31
f 54/97/97 138/83/83 72/85/84
f 136/65/64 135/86/85 65/66/65
f 77/77/77 55/88/87 67/78/78
f 85/148/151 7/91/90 83/92/91
f 10/10/10 84/93/92 9/11/11
f 10/10/10 8/14/14 84/93/92
f 58/105/108 57/95/94 12/96/95
f 77/147/152 142/82/96 54/97/97
f 74/103/104 48/100/101 147/102/103
f 145/99/100 86/98/99 147/102/103
f 55/88/87 73/8/105 56/89/88
f 79/147/153 78/82/107 58/105/108
f 140/149/154 88/106/109 139/108/93
f 89/112/111 48/109/106 90/111/110
f 91/150/155 89/112/111 92/113/112
f 91/150/155 92/113/112 93/115/114
f 95/25/156 93/115/114 96/116/115
f 98/151/157 112/118/117 99/120/119
f 156/152/138 97/48/120 158/122/122
f 98/151/157 99/120/119 101/87/124
f 105/126/126 158/122/122 103/124/125
f 101/87/124 102/123/123 104/66/127
f 108/139/129 105/126/126 106/127/128
f 104/66/127 105/125/126 107/129/130
f 150/138/139 109/136/137 149/133/134
f 64/87/86 135/86/85 112/118/117
f 114/117/116 48/100/101 156/96/138
f 148/132/133 155/131/132 150/138/139
f 117/139/143 152/139/140 115/127/142
f 153/129/144 152/128/140 116/129/144
