# Blender v2.73 (sub 0) OBJ File: 'tiles.blend'
# www.blender.org
o Plane.013_Plane.057
v -0.537186 0.562034 -0.387178
v -0.076418 0.758848 0.397718
v -0.663645 0.566851 -0.139094
v -0.114873 0.584496 0.397718
v -0.425658 0.560950 0.424089
v -0.418245 0.740783 -0.500690
v -0.227261 1.077754 0.461946
v -0.210777 1.049409 -0.233994
v -0.203847 1.074555 0.246485
v -0.221853 0.836425 0.492415
v -0.614656 0.750184 0.200574
v -0.390000 0.920000 -0.500000
v -0.464146 0.734280 0.169952
v -0.335161 0.895936 0.240627
v -0.231651 0.844185 0.333751
v -0.464146 0.724160 -0.124750
v -0.420000 0.740000 -0.500000
v -0.640308 0.548422 0.165887
v -0.522204 0.505542 0.368801
v -0.335693 0.662620 0.330352
v -0.439778 0.714733 0.240627
v -0.637994 0.761895 -0.143155
v -0.390016 1.151281 0.342858
v -0.283977 1.106745 0.444457
v -0.338789 1.134613 0.412479
v -0.460000 1.120000 -0.500000
v -0.439771 1.138829 -0.281672
v -0.448242 1.129040 -0.403712
v -0.397675 0.921087 0.444102
v -0.502512 0.966185 0.342551
v -0.451586 0.950092 0.412289
v -0.552160 0.944165 -0.281672
v -0.580000 0.930000 -0.500000
v -0.560631 0.934375 -0.403712
v -0.421351 0.960558 -0.236986
v -0.426113 0.957494 0.005627
v -0.546569 0.744516 -0.383817
v -0.422234 0.724160 -0.316082
v -0.512940 0.758949 0.005627
v -0.509150 0.759961 -0.234294
v -0.453906 1.188846 -0.079631
v -0.450187 1.196871 0.107038
v -0.562460 1.004153 0.107366
v -0.566295 0.994181 -0.079631
v -0.275393 0.072696 0.493779
v -0.448236 0.267409 0.369303
v 0.296225 -0.000869 0.451300
v -0.288994 0.660676 0.482279
v 0.258852 0.442360 0.475934
v 0.230358 0.457206 0.344558
v -0.266215 0.644771 0.354651
v 0.231866 0.252639 0.515935
v -0.097372 0.368244 0.462097
v -0.201989 0.213791 0.462097
v 0.009962 0.981635 0.485549
v -0.035961 0.778513 0.520662
v -0.540000 0.740000 -0.500000
v 0.496384 0.560950 0.424089
v -0.550000 0.570000 -0.500000
v 0.391767 0.379747 0.424089
v -0.053425 -0.000869 0.492947
v -0.503061 -0.000869 0.497878
v -0.291318 -0.000869 0.488320
v -0.219828 0.059747 0.423426
v 0.281823 -0.000869 0.487094
v 0.496939 -0.000869 0.493322
v -0.503061 0.102757 0.497360
v -0.394568 0.691399 0.273992
v -0.482277 0.707304 0.385142
v -0.331835 0.458914 0.487358
v -0.383986 0.475462 0.345554
v -0.182811 0.188295 0.424931
v 0.496939 0.314756 0.436451
v 0.496939 0.309278 0.340294
v 0.496939 0.109294 0.492804
v 0.496939 0.748210 0.490747
v 0.496939 0.502222 0.483954
v 0.496939 0.560593 0.424118
v 0.496939 0.555241 0.357538
v 0.496939 0.312132 0.436580
v -0.032209 0.975182 -0.337019
v 0.029758 0.989356 0.321601
v -0.065428 0.983916 -0.500000
v -0.029738 0.127849 0.419486
v -0.040123 0.000959 0.424069
v 0.496939 0.745228 0.385344
v -0.587548 0.267409 0.206746
v -0.552650 0.492485 0.196163
v -0.651127 0.267409 0.053171
v -0.616229 0.493276 0.042589
v -0.617151 0.267409 -0.242663
v -0.582252 0.495497 -0.253245
v -0.541649 0.276057 -0.523619
v -0.435131 0.560822 -0.498589
v -0.549501 0.267409 0.221507
v -0.659677 -0.000869 0.358693
v -0.659678 0.109294 0.358174
v -0.623203 0.267409 0.085218
v -0.735262 -0.000869 0.140126
v -0.734870 0.109294 0.139786
v -0.623926 0.267409 -0.163481
v -0.719907 -0.000869 -0.195339
v -0.719420 0.109294 -0.195517
v -0.582349 0.267409 -0.403263
v -0.630647 -0.000869 -0.426952
v -0.630150 0.109294 -0.426805
v -0.603813 0.121974 0.312758
v -0.699863 0.126511 0.102924
v -0.483839 0.106981 0.419429
v -0.566725 -0.000869 0.472503
v -0.564073 0.109294 0.474342
v -0.535346 0.111530 0.389301
v -0.547475 0.306242 -0.497881
v -0.644063 0.000928 -0.496815
v -0.643566 0.111091 -0.496668
v -0.614656 0.750184 0.200574
v -0.482277 0.707304 0.385142
v -0.283977 1.106745 0.444457
v -0.338789 1.134613 0.412479
v -0.390016 1.151281 0.342858
v -0.439771 1.138829 -0.281672
v -0.448242 1.129040 -0.403712
v -0.460000 1.120000 -0.500000
v -0.637994 0.761895 -0.143155
v -0.227261 1.077754 0.461946
v -0.540000 0.740000 -0.500000
v -0.546569 0.744516 -0.383817
v -0.453906 1.188846 -0.079631
v -0.450187 1.196871 0.107038
v -0.503061 0.102757 0.497360
v -0.275393 0.072696 0.493779
v -0.288994 0.660676 0.482279
v 0.258852 0.442360 0.475934
v 0.009962 0.981635 0.485549
v 0.496939 0.748210 0.490747
v -0.053425 -0.000869 0.492947
v 0.496939 0.314756 0.436451
v 0.496384 0.560950 0.424089
v 0.496939 0.560593 0.424118
v -0.040123 0.000959 0.424069
v 0.296225 -0.000869 0.451300
v -0.219828 0.059747 0.423426
v -0.564073 0.109294 0.474342
v -0.734870 0.109294 0.139786
v -0.659678 0.109294 0.358174
v -0.719420 0.109294 -0.195517
v -0.630647 -0.000869 -0.426952
v -0.535346 0.111530 0.389301
v -0.603813 0.121974 0.312758
v -0.483839 0.106981 0.419429
v -0.699863 0.126511 0.102924
vt 0.072266 0.798828
vt 0.043945 0.798828
vt 0.036133 0.778320
vt 0.093750 0.850586
vt 0.093750 0.828125
vt 0.109375 0.828125
vt 0.023438 0.798828
vt 0.000977 0.798828
vt 0.000977 0.779297
vt 0.301758 0.843750
vt 0.335938 0.841797
vt 0.332031 0.872070
vt 0.277344 0.846680
vt 0.271484 0.835938
vt 0.124023 0.850586
vt 0.107422 0.850586
vt 0.098633 0.830078
vt 0.081055 0.874023
vt 0.083008 0.853516
vt 0.098633 0.853516
vt 0.089844 0.850586
vt 0.056641 0.850586
vt 0.056641 0.830078
vt 0.021484 0.778320
vt 0.086914 0.831055
vt 0.091797 0.849609
vt 0.041016 0.851562
vt 0.111328 0.828125
vt 0.114258 0.850586
vt 0.283203 0.855469
vt 0.296875 0.845703
vt 0.311523 0.854492
vt 0.100586 0.850586
vt 0.092773 0.830078
vt 0.069336 0.874023
vt 0.069336 0.853516
vt 0.052734 0.874023
vt 0.328125 0.855469
vt 0.327148 0.873047
vt 0.125000 0.829102
vt 0.125000 0.850586
vt 0.007812 0.850586
vt 0.000977 0.850586
vt 0.001953 0.834961
vt 0.359375 0.858398
vt 0.349609 0.866211
vt 0.098633 0.874023
vt 0.117188 0.855469
vt 0.348633 0.867188
vt 0.342773 0.850586
vt 0.353516 0.839844
vt 0.282227 0.853516
vt 0.041016 0.833008
vt 0.308594 0.871094
vt 0.290039 0.860352
vt 0.125977 0.752930
vt 0.137695 0.750977
vt 0.143555 0.789062
vt 0.125000 0.790039
vt 0.104492 0.797852
vt 0.105469 0.779297
vt 0.267578 0.750977
vt 0.270508 0.779297
vt 0.255859 0.779297
vt 0.283203 0.824219
vt 0.267578 0.829102
vt 0.449219 -0.025391
vt 0.070312 0.778320
vt 0.114258 0.778320
vt 0.125000 0.798828
vt 0.116211 0.798828
vt 0.125000 0.786133
vt 0.125000 0.799805
vt 0.106445 0.778320
vt 0.137695 0.817383
vt 0.145508 0.810547
vt 0.145508 0.840820
vt 0.125000 0.852539
vt 0.097656 0.852539
vt 0.000000 0.852539
vt 0.000000 0.828125
vt 0.071289 0.799805
vt 0.071289 0.779297
vt 0.041992 0.799805
vt 0.041992 0.778320
vt 0.132812 0.792969
vt 0.284180 0.823242
vt 0.324219 0.817383
vt 0.265625 0.824219
vt 0.052734 0.851562
vt 0.000977 0.829102
vt 0.089844 0.828125
vt 0.103516 0.850586
vt 0.103516 0.829102
vt 0.047852 0.851562
vt 0.047852 0.829102
vt 0.078125 0.829102
vt 0.078125 0.850586
vt 0.000977 0.778320
vt 0.049805 0.829102
vt 0.265693 0.752930
vt 0.274274 0.795634
vt 0.258789 0.795898
vt 0.124023 0.778320
vt 0.124023 0.798828
vt 0.104492 0.799805
vt 0.105469 0.778320
vt 0.077148 0.799805
vt 0.044922 0.799805
vt 0.045898 0.778320
vt 0.022461 0.799805
vt 0.033627 0.829102
vt 0.054554 0.779297
vt 0.055414 0.800110
vt 0.020508 0.800781
vt 0.015625 0.850586
vt 0.013672 0.829102
vt 0.071289 0.800781
vt 0.031250 0.850586
vt 0.105469 0.799805
vt 0.031250 0.829102
vt 0.063477 0.850586
vt 0.124023 0.796875
vt 0.124023 0.779297
vt 0.155273 0.833984
vt 0.159126 0.839615
vt 0.149782 0.846621
vt 0.189453 0.872070
vt 0.192383 0.863281
vt 0.207031 0.871094
vt 0.167969 0.852539
vt 0.000977 0.851562
vt 0.159180 0.859375
vt 0.062500 0.829102
vt 0.364258 0.849609
vt 0.352539 0.815430
vt 0.110352 0.850586
vt 0.124023 0.830078
vt 0.086914 0.830078
vt 0.304688 0.869141
vt 0.052734 0.853516
vt 0.008789 0.833984
vt 0.124023 0.874023
vt 0.363281 0.854492
vt 0.251953 0.752930
vt 0.125000 0.778320
vt 0.125000 0.828125
vt 0.252930 0.752930
vt 0.076172 0.778320
vt 0.020508 0.779297
vt 0.000977 0.830078
vn -0.181200 0.063900 0.981400
vn -0.429000 0.229500 0.873700
vn -0.429100 0.217600 0.876600
vn -0.930100 0.256900 -0.262300
vn -0.932900 0.155500 -0.324700
vn -0.926500 0.356900 -0.119300
vn -0.705700 0.374800 0.601200
vn -0.897600 0.392600 0.200500
vn -0.889100 0.414500 0.194000
vn 0.390000 0.920700 -0.009100
vn 0.378500 0.922700 -0.073100
vn 0.447200 0.889400 -0.094800
vn 0.442200 0.896300 0.033300
vn 0.394900 0.917800 0.041200
vn -0.159200 0.127800 0.978900
vn -0.309000 0.187400 0.932400
vn -0.310300 0.185000 0.932500
vn -0.862500 0.498000 -0.089800
vn -0.863800 0.498700 -0.071900
vn -0.861500 0.497400 -0.101600
vn -0.760700 0.458100 0.459800
vn -0.854000 0.497800 0.151400
vn -0.853500 0.500700 0.144500
vn -0.701200 0.404800 0.586900
vn -0.954400 0.075300 0.288700
vn -0.938400 0.089300 0.333900
vn -0.981500 0.122600 -0.147400
vn -0.669900 0.071400 0.739000
vn -0.639100 0.064400 0.766400
vn 0.259700 0.962400 0.079900
vn 0.321800 0.939200 0.119600
vn 0.177200 0.981100 0.077600
vn -0.541800 0.330200 0.772900
vn -0.562600 0.342000 0.752700
vn -0.865400 0.499600 0.037800
vn -0.855500 0.512300 0.075500
vn -0.858200 0.506900 0.080400
vn 0.211500 0.977400 0.006100
vn 0.186400 0.982500 0.003800
vn -0.974600 0.019600 -0.223200
vn -0.996600 0.058600 -0.058600
vn -0.998700 -0.013100 0.049200
vn 0.394000 0.910700 -0.124000
vn 0.385800 0.911200 -0.144100
vn -0.862100 0.499100 -0.087800
vn 0.108400 0.993900 0.020600
vn 0.156000 0.986900 0.041300
vn 0.056200 0.998000 0.029800
vn 0.399800 0.916600 -0.006700
vn -0.983500 0.097800 -0.152200
vn 0.451100 0.892400 -0.014100
vn 0.387700 0.921700 0.015200
vn 0.004700 1.000000 0.004700
vn 0.005300 1.000000 0.002100
vn 0.143000 0.988300 0.052900
vn -0.019400 -0.069800 0.997400
vn -0.006700 -0.072600 0.997300
vn 0.000600 -0.061300 0.998100
vn 0.471200 0.881200 -0.037500
vn 0.419200 0.907900 0.005700
vn 0.432700 0.901500 0.002800
vn 0.313300 0.949100 -0.033500
vn 0.312500 0.948300 -0.056000
vn 0.541900 0.837700 -0.067400
vn -0.150800 0.033300 0.988000
vn -0.062400 0.034600 0.997500
vn -0.049600 0.028700 0.998400
vn -0.038000 0.021900 0.999000
vn -0.028900 0.004700 0.999600
vn -0.033900 0.014400 0.999300
vn -0.038100 0.022800 0.999000
vn 0.182500 0.982500 -0.036700
vn 0.265400 0.963000 0.046100
vn 0.120700 0.990300 0.069200
vn -0.253900 0.052000 0.965800
vn 0.116600 0.168200 0.978800
vn -0.234500 0.093500 0.967600
vn -0.180000 -0.007800 0.983600
vn -0.166200 0.004900 0.986100
vn -0.155800 0.105400 0.982100
vn -0.195500 0.130900 0.971900
vn 0.176900 0.982500 0.058800
vn 0.388800 0.920300 0.042000
vn 0.365500 0.930100 -0.036600
vn 0.406900 0.909500 0.084400
vn -0.010000 0.155100 0.987800
vn -0.119300 0.141300 0.982800
vn 0.231000 0.225200 0.946500
vn 0.149700 0.203600 0.967500
vn -0.080400 0.042600 0.995900
vn -0.023400 0.025700 0.999400
vn -0.038700 0.039200 0.998500
vn -0.389000 0.395600 0.831900
vn -0.212000 0.334000 0.918400
vn -0.049700 0.068000 0.996400
vn -0.086600 0.013300 0.996200
vn -0.472800 0.243700 0.846800
vn -0.521200 0.212100 0.826600
vn 0.056500 0.008300 0.998400
vn -0.005800 0.148100 0.989000
vn 0.436100 0.899900 -0.003400
vn -0.815200 0.190000 0.547100
vn -0.843900 0.154800 0.513600
vn -0.978600 0.157300 0.132400
vn -0.949400 0.203200 -0.239600
vn -0.973700 0.141000 -0.179200
vn -0.841400 0.350800 -0.411100
vn -0.901900 0.259100 -0.345700
vn -0.563700 0.407200 0.718600
vn -0.591600 0.003400 0.806300
vn -0.585600 0.000600 0.810600
vn -0.873200 0.003700 0.487300
vn -0.740100 0.523300 0.422300
vn -0.845800 0.487400 0.217100
vn -0.839400 0.504600 0.202100
vn -0.989800 0.004100 0.142100
vn -0.989700 0.003600 0.142900
vn -0.853400 0.518200 -0.056500
vn -0.956100 0.242200 -0.164800
vn -0.978700 0.003900 -0.205200
vn -0.896500 0.409700 -0.168700
vn -0.984900 0.155600 -0.075500
vn -0.933000 0.004400 -0.359900
vn 0.120000 0.989800 0.076300
vn 0.002700 0.998200 0.060400
vn 0.035200 0.998300 0.045700
vn -0.330700 0.938700 0.097300
vn -0.405600 0.913100 0.041200
vn -0.459100 0.888100 -0.021200
vn -0.132600 0.982700 0.129000
vn -0.713200 0.508300 0.482700
vn -0.104000 0.990000 0.095300
vn -0.887600 0.436100 -0.148200
vn -0.977000 0.164900 0.135200
vn -0.982000 0.004200 0.188700
vn 0.360500 0.928300 -0.091400
vn 0.344700 0.937700 -0.042500
vn -0.912800 0.398300 -0.089700
vn -0.766800 0.465300 0.442200
vn 0.119700 0.990000 0.074000
vn -0.836600 0.528400 0.144300
vn -0.982600 -0.047200 -0.179700
vn -0.006600 0.999200 -0.039200
vn 0.465300 0.883700 -0.050400
vn -0.086100 0.049900 0.995000
vn 0.221500 0.257900 0.940400
vn 0.054500 -0.027600 0.998100
vn 0.432300 0.901400 -0.025500
vn -0.977400 0.157600 0.140600
vn -0.873100 0.002300 0.487600
s 1
f 2/1/1 15/2/2 20/3/3
f 12/4/4 17/5/5 40/6/6
f 14/7/7 36/8/8 39/9/9
f 9/10/10 8/11/11 41/12/12
f 9/10/10 118/13/13 7/14/14
f 125/15/15 24/16/16 29/17/17
f 27/18/18 32/19/19 44/20/20
f 23/21/21 129/22/22 43/23/23
f 14/7/7 21/24/24 20/3/3
f 18/25/25 11/26/26 22/27/27
f 19/28/28 69/29/29 11/26/26
f 117/30/30 68/31/31 13/32/32
f 29/17/17 24/16/16 25/33/33
f 31/34/34 25/33/33 23/21/21
f 32/19/19 27/18/18 28/35/35
f 34/36/36 28/35/35 26/37/37
f 13/32/32 16/38/38 124/39/39
f 40/6/6 39/40/9 36/41/8
f 37/42/40 57/43/41 59/44/42
f 8/11/11 122/45/43 121/46/44
f 128/47/45 44/20/20 43/48/23
f 127/49/46 38/50/47 6/51/48
f 119/52/49 118/13/13 9/10/10
f 3/53/50 22/27/27 37/42/40
f 42/54/51 120/55/52 9/10/10
f 124/39/39 16/38/38 38/50/47
f 65/56/53 47/57/54 85/58/55
f 61/59/56 131/60/57 63/61/58
f 74/62/59 50/63/60 49/64/61
f 50/63/60 51/65/62 48/66/63
f 79/67/64 138/67/64 78/67/64
f 2/1/1 4/68/65 60/69/66
f 139/70/67 58/71/68 60/69/66
f 66/72/69 75/73/70 65/74/71
f 45/75/72 64/76/73 67/77/74
f 51/65/62 68/31/31 117/30/30
f 132/78/75 69/29/29 19/28/28
f 133/79/76 132/80/75 70/81/77
f 130/82/78 62/83/79 63/61/58
f 53/84/80 54/85/81 65/74/71
f 136/86/82 64/76/73 45/75/72
f 82/87/83 81/88/84 8/11/11
f 7/14/14 134/89/85 82/87/83
f 55/90/86 125/43/15 10/91/87
f 137/78/88 133/79/76 52/92/89
f 141/40/90 84/93/91 140/94/92
f 46/95/93 150/96/94 142/97/95
f 136/86/82 85/58/55 64/76/73
f 84/93/91 72/98/96 142/97/95
f 71/8/97 46/99/98 54/85/81
f 76/78/99 55/90/86 56/100/100
f 86/101/101 82/102/83 134/103/85
f 46/104/98 71/105/97 88/106/102
f 87/107/103 88/106/102 90/108/104
f 90/108/104 92/109/105 91/110/106
f 92/109/105 94/111/107 93/24/108
f 150/96/94 46/95/93 112/112/109
f 110/113/110 111/114/111 97/115/112
f 95/43/113 98/116/114 151/117/115
f 97/115/112 100/118/116 99/83/117
f 151/117/115 98/116/114 101/119/118
f 100/118/116 103/120/119 102/61/120
f 103/121/119 101/119/118 104/122/121
f 103/120/119 106/123/122 105/124/123
f 109/125/124 148/126/125 143/127/126
f 64/76/73 109/125/124 67/77/74
f 144/128/127 108/129/128 146/130/129
f 107/131/130 108/129/128 144/128/127
f 130/82/78 111/114/111 110/113/110
f 67/77/74 109/125/124 143/127/126
f 46/95/93 95/132/113 149/91/131
f 148/126/125 107/131/130 145/133/132
f 104/122/121 113/122/133 115/134/134
f 106/123/122 115/123/134 114/124/135
f 123/135/136 122/45/43 8/11/11
f 83/136/137 123/135/136 8/11/11
f 4/68/65 2/1/1 20/3/3
f 35/137/138 12/4/4 40/6/6
f 21/24/24 14/7/7 39/9/9
f 42/54/51 9/10/10 41/12/12
f 10/138/87 125/15/15 29/17/17
f 128/47/45 27/18/18 44/20/20
f 30/139/139 23/21/21 43/23/23
f 15/2/2 14/7/7 20/3/3
f 3/53/50 18/25/25 22/27/27
f 18/25/25 19/28/28 11/26/26
f 116/140/140 117/30/30 13/32/32
f 31/34/34 29/17/17 25/33/33
f 30/139/139 31/34/34 23/21/21
f 34/36/36 32/19/19 28/35/35
f 33/141/141 34/36/36 26/37/37
f 116/140/140 13/32/32 124/39/39
f 35/137/138 40/6/6 36/41/8
f 1/142/142 37/42/40 59/44/42
f 41/12/12 8/11/11 121/46/44
f 129/143/22 128/47/45 43/48/23
f 126/144/143 127/49/46 6/51/48
f 120/55/52 119/52/49 9/10/10
f 1/142/142 3/53/50 37/42/40
f 127/49/46 124/39/39 38/50/47
f 136/86/82 65/56/53 85/58/55
f 73/145/144 74/62/59 49/64/61
f 49/64/61 50/63/60 48/66/63
f 58/71/68 2/1/1 60/69/66
f 80/146/145 139/70/67 60/69/66
f 48/66/63 51/65/62 117/30/30
f 70/147/77 132/78/75 19/28/28
f 52/92/89 133/79/76 70/81/77
f 131/60/57 130/82/78 63/61/58
f 75/73/70 53/84/80 65/74/71
f 9/10/10 82/87/83 8/11/11
f 9/10/10 7/14/14 82/87/83
f 56/100/100 55/90/86 10/91/87
f 75/147/146 137/78/88 52/92/89
f 72/98/96 46/95/93 142/97/95
f 140/94/92 84/93/91 142/97/95
f 53/84/80 71/8/97 54/85/81
f 77/147/147 76/78/99 56/100/100
f 135/148/148 86/101/101 134/103/85
f 87/107/103 46/104/98 88/106/102
f 89/149/149 87/107/103 90/108/104
f 89/149/149 90/108/104 91/110/106
f 91/110/106 92/109/105 93/24/108
f 96/150/150 110/113/110 97/115/112
f 149/151/131 95/43/113 151/117/115
f 96/150/150 97/115/112 99/83/117
f 103/121/119 151/117/115 101/119/118
f 99/83/117 100/118/116 102/61/120
f 106/134/122 103/121/119 104/122/121
f 102/61/120 103/120/119 105/124/123
f 145/133/132 107/131/130 144/128/127
f 62/83/79 130/82/78 110/113/110
f 112/112/109 46/95/93 149/91/131
f 143/127/126 148/126/125 145/133/132
f 106/134/122 104/122/121 115/134/134
f 147/124/135 106/123/122 114/124/135
f 81/88/84 83/136/137 8/11/11
