# Blender v2.73 (sub 0) OBJ File: 'tiles.blend'
# www.blender.org
o Cube.003
v 0.183150 -0.420000 -0.000000
v -0.183151 -0.420000 -0.000000
v -0.000000 -0.674016 -0.000000
v 0.719999 -0.420000 -0.000000
v -0.720000 -0.420000 -0.000000
v -0.719999 0.420000 0.000000
v 0.720000 0.420000 0.000000
vt 0.582031 0.089844
vt 0.582031 0.285156
vt 0.386719 0.285156
vt 0.628906 0.148438
vt 0.582031 0.148438
vt 0.605469 0.089844
vt 0.386719 0.089844
vn -0.000000 -0.000000 1.000000
s off
f 4/1/1 7/2/1 6/3/1
f 1/4/1 2/5/1 3/6/1
f 5/7/1 4/1/1 6/3/1
