# Blender v2.73 (sub 0) OBJ File: 'tiles.blend'
# www.blender.org
o Cube
v 0.499999 0.100005 0.500000
v -0.500000 0.100005 0.499999
v -0.500000 0.100005 -0.500000
v 0.500000 0.100005 -0.500000
v -0.333333 0.100005 0.500000
v -0.333333 0.100005 -0.500000
v 0.499999 0.200005 0.500000
v 0.500000 0.200005 -0.500000
v -0.166667 0.200005 0.500000
v -0.333333 0.200005 0.500000
v -0.333333 0.200005 -0.500000
v -0.166666 0.200005 -0.500000
v 0.499999 0.300005 0.500000
v 0.500000 0.300005 -0.500000
v -0.000000 0.300005 0.500000
v -0.166667 0.300005 0.500000
v -0.166666 0.300005 -0.500000
v 0.000000 0.300005 -0.500000
v 0.499999 0.400005 0.500000
v 0.500000 0.400005 -0.500000
v 0.166666 0.400005 0.500000
v -0.000000 0.400005 0.500000
v 0.000000 0.400005 -0.500000
v 0.166667 0.400005 -0.500000
v 0.499999 0.500005 0.500000
v 0.500000 0.500005 -0.500000
v 0.333333 0.500005 0.500000
v 0.166666 0.500005 0.500000
v 0.166667 0.500005 -0.500000
v 0.333333 0.500005 -0.500000
v 0.499999 0.600005 0.500000
v 0.500000 0.600005 -0.500000
v 0.333333 0.600005 0.500000
v 0.333333 0.600005 -0.500000
v 0.499999 -0.000000 0.500000
v -0.500000 -0.000000 0.499999
v -0.500000 -0.000000 -0.500000
v 0.500000 -0.000000 -0.500000
vt 0.500000 0.535156
vt 0.500000 0.453125
vt 1.000000 0.453125
vt 0.832031 0.902344
vt 1.000000 0.703125
vt 0.750000 0.851562
vt 0.667969 0.851562
vt 0.667969 0.800781
vt 0.500000 0.703125
vt 0.582031 0.750000
vt 1.000000 0.750000
vt 1.000000 0.800781
vt 0.500000 0.800781
vt 0.917969 0.953125
vt 0.917969 1.000000
vt 1.000000 1.000000
vt 1.000000 0.851562
vt 0.500000 0.851562
vt 0.500000 0.617188
vt 1.000000 0.535156
vt 0.582031 0.800781
vt 1.000000 0.902344
vt 0.500000 0.902344
vt 1.000000 0.617188
vt 1.000000 0.953125
vt 0.500000 0.953125
vt 0.500000 0.785156
vt 0.500000 1.000000
vt 0.500000 0.867188
vt 1.000000 0.785156
vt 0.500000 0.750000
vt 1.000000 0.867188
vt 0.750000 0.902344
vt 0.832031 0.953125
vn 0.000000 1.000000 -0.000000
vn 0.000000 -0.000000 -1.000000
vn -0.000000 0.000000 1.000000
vn -1.000000 0.000000 -0.000000
vn 1.000000 0.000000 0.000000
s off
f 6/1/1 3/2/1 2/3/1
f 24/4/2 38/5/2 18/6/2
f 15/6/3 16/7/3 9/8/3
f 12/8/2 17/7/2 18/6/2
f 36/9/3 35/5/3 5/10/3
f 5/11/4 10/12/4 11/13/4
f 30/14/2 38/5/2 24/4/2
f 15/6/3 35/5/3 21/4/3
f 30/14/2 34/15/2 32/16/2
f 9/12/4 16/17/4 17/18/4
f 12/19/1 11/1/1 10/20/1
f 21/4/3 35/5/3 27/14/3
f 6/10/2 11/21/2 12/8/2
f 15/17/4 22/22/4 23/23/4
f 18/9/1 17/19/1 16/24/1
f 30/14/2 20/22/2 14/17/2
f 38/5/2 37/9/2 6/10/2
f 21/22/4 28/25/4 29/26/4
f 24/27/1 23/9/1 22/5/1
f 27/25/4 33/16/4 34/28/4
f 30/29/1 29/27/1 28/30/1
f 37/9/2 3/31/2 6/10/2
f 32/26/1 34/29/1 33/32/1
f 27/14/3 1/11/3 7/12/3
f 3/31/4 37/9/4 36/5/4
f 20/23/5 19/22/5 13/17/5
f 27/14/3 31/16/3 33/15/3
f 36/9/3 5/10/3 2/31/3
f 9/8/3 10/21/3 5/10/3
f 5/20/1 6/1/1 2/3/1
f 23/33/2 24/4/2 18/6/2
f 35/5/3 15/6/3 9/8/3
f 38/5/2 12/8/2 18/6/2
f 6/31/4 5/11/4 11/13/4
f 29/34/2 30/14/2 24/4/2
f 22/33/3 15/6/3 21/4/3
f 12/13/4 9/12/4 17/18/4
f 9/24/1 12/19/1 10/20/1
f 28/34/3 21/4/3 27/14/3
f 38/5/2 6/10/2 12/8/2
f 18/18/4 15/17/4 23/23/4
f 15/5/1 18/9/1 16/24/1
f 30/14/2 4/11/2 38/5/2
f 30/14/2 14/17/2 8/12/2
f 30/14/2 26/25/2 20/22/2
f 8/12/2 4/11/2 30/14/2
f 30/14/2 32/16/2 26/25/2
f 24/23/4 21/22/4 29/26/4
f 21/30/1 24/27/1 22/5/1
f 30/26/4 27/25/4 34/28/4
f 27/32/1 30/29/1 28/30/1
f 31/25/1 32/26/1 33/32/1
f 25/25/3 31/16/3 27/14/3
f 27/14/3 19/22/3 25/25/3
f 27/14/3 7/12/3 13/17/3
f 27/14/3 35/5/3 1/11/3
f 13/17/3 19/22/3 27/14/3
f 2/11/4 3/31/4 36/5/4
f 7/12/5 8/13/5 14/18/5
f 35/5/5 38/9/5 4/31/5
f 4/31/5 1/11/5 35/5/5
f 14/18/5 13/17/5 7/12/5
f 26/26/5 25/25/5 19/22/5
f 26/26/5 32/28/5 31/16/5
f 19/22/5 20/23/5 26/26/5
f 1/11/5 4/31/5 8/13/5
f 8/13/5 7/12/5 1/11/5
f 26/26/5 31/16/5 25/25/5
f 13/17/5 14/18/5 20/23/5
f 35/5/3 9/8/3 5/10/3
